<svg aria-hidden="true" width="20" height="20" viewBox="0 0 20 20" fill="none" xmlns="http://www.w3.org/2000/svg">
  <path d="M4.25 8.75H15.75V15C15.75 15.6904 15.1904 16.25 14.5 16.25H5.5C4.80964 16.25 4.25 15.6904 4.25 15V8.75Z" stroke="currentColor" stroke-width="var(--icon-stroke-width)" stroke-linecap="round" stroke-linejoin="round"/>
  <path d="M3.5 6.25C3.5 5.55964 4.05964 5 4.75 5H15.25C15.9404 5 16.5 5.55964 16.5 6.25V8.75H3.5V6.25Z" stroke="currentColor" stroke-width="var(--icon-stroke-width)" stroke-linecap="round" stroke-linejoin="round"/>
  <path d="M10 5V16.25" stroke="currentColor" stroke-width="var(--icon-stroke-width)" stroke-linecap="round"/>
  <path d="M10 5C10 5 7.5 5 7 3.75C6.5 2.5 8.5 2 9 3C9.5 4 10 5 10 5Z" stroke="currentColor" stroke-width="var(--icon-stroke-width)" stroke-linecap="round" stroke-linejoin="round"/>
  <path d="M10 5C10 5 12.5 5 13 3.75C13.5 2.5 11.5 2 11 3C10.5 4 10 5 10 5Z" stroke="currentColor" stroke-width="var(--icon-stroke-width)" stroke-linecap="round" stroke-linejoin="round"/>
</svg>
